# xmcd
#
# Track frame offsets: 
#        150
#        20688
#        41436
#        56558
#        76974
#        93539
#        114139
#        125924
#        150454
#        169194
#
# Disc length: 2441 seconds
#
# Revision: 0
# Processed by: cddbd v1.5.2PL0 Copyright (c) Steve Scherf et al.
# Submitted via: ExactAudioCopy v0.95b4
#
DISCID=7809870a
DTITLE=Chrissie ODell and One Hot Mess - If I Had A Dime
DYEAR=2010
DGENRE=Blues
TTITLE0=If I Had A Dime
TTITLE1=Simple Kind of Woman
TTITLE2=Found Me A Man
TTITLE3=Sleep All Day
TTITLE4=You Lied To Me
TTITLE5=Cut You Loose
TTITLE6=Nuthin to Love
TTITLE7=I Miss You
TTITLE8=Hot Potato
TTITLE9=Forecase =t Calls For Change
EXTD=
EXTT0=
EXTT1=
EXTT2=
EXTT3=
EXTT4=
EXTT5=
EXTT6=
EXTT7=
EXTT8=
EXTT9=
PLAYORDER=
